<svg width="489" height="489" viewBox="0 0 489 489" fill="none" xmlns="http://www.w3.org/2000/svg">
<path d="M417.4 71.6C371.2 25.4 309.8 0 244.5 0C179.2 0 117.8 25.4 71.6 71.6C25.4 117.8 0 179.2 0 244.5C0 309.8 25.4 371.2 71.6 417.4C117.8 463.6 179.2 489 244.5 489C309.8 489 371.2 463.6 417.4 417.4C463.6 371.2 489 309.8 489 244.5C489 179.2 463.6 117.8 417.4 71.6ZM244.5 462C124.6 462 27 364.4 27 244.5C27 124.6 124.6 27 244.5 27C364.4 27 462 124.6 462 244.5C462 364.4 364.4 462 244.5 462Z" fill="#317313"/>
<path d="M301.6 188.1L217.5 272.3L187.4 242.2C182.1 236.9 173.6 236.9 168.3 242.2C163 247.5 163 256 168.3 261.3L208 301C210.6 303.6 214.1 305 217.5 305C220.9 305 224.4 303.7 227 301L320.7 207.3C326 202 326 193.5 320.7 188.2C315.5 182.8 306.9 182.8 301.6 188.1Z" fill="#317313"/>
</svg>
